<svg xmlns="http://www.w3.org/2000/svg" width="24" height="16" viewBox="0 0 24 16" fill="none">
<path fill-rule="evenodd" clip-rule="evenodd" d="M8.68085 1.03226C8.68085 0.462158 9.13809 0 9.70213 0H14.2979C14.8619 0 15.3191 0.462158 15.3191 1.03226V14.9677C15.3191 15.5378 14.8619 16 14.2979 16H9.70213C9.13809 16 8.68085 15.5378 8.68085 14.9677V1.03226ZM0 6.70968C0 6.13958 0.457241 5.67742 1.02128 5.67742H5.61702C6.18106 5.67742 6.6383 6.13958 6.6383 6.70968V14.9677C6.6383 15.5378 6.18106 16 5.61702 16H1.02128C0.457241 16 0 15.5378 0 14.9677V6.70968ZM18.383 9.29032C17.8189 9.29032 17.3617 9.75248 17.3617 10.3226V14.9677C17.3617 15.5378 17.8189 16 18.383 16H22.9787C23.5428 16 24 15.5378 24 14.9677V10.3226C24 9.75248 23.5428 9.29032 22.9787 9.29032H18.383Z" fill="#0082B9"/>
</svg>